<?xml version="1.0" standalone="no"?>
<!DOCTYPE svg PUBLIC "-//W3C//DTD SVG 20010904//EN"
 "http://www.w3.org/TR/2001/REC-SVG-20010904/DTD/svg10.dtd">
<svg version="1.0" xmlns="http://www.w3.org/2000/svg"
 width="1504.000000pt" height="1504.000000pt" viewBox="0 0 1504.000000 1504.000000"
 preserveAspectRatio="xMidYMid meet">
<metadata>
Created by potrace 1.11, written by Peter Selinger 2001-2013
</metadata>
<g transform="translate(0.000000,1504.000000) scale(0.100000,-0.100000)"
fill="#000000" stroke="none">
<path d="M10 7525 l0 -7515 7515 0 7515 0 -2 7513 -3 7512 -7512 3 -7513 2 0
-7515z m4218 2348 l-3 -1978 -225 1 -225 1 -3 1977 -2 1976 230 0 230 0 -2
-1977z m2892 1772 c0 -204 0 -205 -22 -210 -13 -3 -166 -4 -341 -3 l-317 3 0
-1772 0 -1773 -225 0 -225 0 0 1773 0 1772 -317 -3 c-175 -1 -328 0 -340 3
-23 5 -23 6 -23 210 l0 205 905 0 905 0 0 -205z m2481 -34 c222 -54 546 -133
719 -175 173 -42 328 -82 343 -88 34 -13 44 -32 237 -453 78 -170 210 -456
292 -634 121 -262 149 -330 145 -355 -3 -17 -158 -341 -344 -721 -268 -545
-344 -692 -363 -702 -14 -6 -176 -44 -360 -83 -184 -39 -512 -110 -727 -156
-216 -46 -408 -84 -427 -84 -40 0 -8 -25 -602 465 -247 204 -488 402 -535 440
-48 39 -93 80 -100 92 -10 18 -10 176 -1 796 6 425 14 780 17 790 7 16 61 59
465 371 85 66 272 210 415 321 143 111 282 218 308 238 33 25 59 37 81 37 18
0 215 -44 437 -99z m-5371 -6091 l0 -1770 580 0 580 0 0 -210 0 -210 -805 0
-805 0 0 1973 c0 1086 3 1977 7 1980 3 4 105 7 225 7 l218 0 0 -1770z m2218
-212 l2 -1978 -230 0 -230 0 0 1973 c0 1086 3 1977 7 1981 4 3 106 5 227 4
l221 -3 3 -1977z m2660 1770 l2 -208 -625 0 -625 0 0 -660 0 -660 540 0 540 0
0 -210 0 -210 -540 0 -540 0 0 -900 0 -900 -230 0 -230 0 0 1973 c0 1086 3
1977 7 1980 3 4 387 6 852 5 l846 -3 3 -207z m2280 0 l2 -208 -335 0 -335 0 0
-1770 0 -1770 -230 0 -230 0 0 1770 0 1770 -335 0 -335 0 0 210 0 210 898 -2
897 -3 3 -207z"/>
<path d="M9127 11468 c-100 -78 -124 -100 -104 -94 11 4 16 2 12 -5 -4 -6 -13
-8 -20 -5 -18 6 -87 -43 -79 -56 5 -7 2 -8 -6 -3 -8 5 -17 2 -24 -6 -6 -8 -35
-32 -63 -54 -48 -35 -70 -57 -41 -39 7 4 8 3 4 -5 -4 -6 -11 -9 -16 -6 -5 3
-53 -29 -107 -70 -54 -42 -113 -87 -131 -101 -18 -14 -29 -30 -26 -36 4 -7 2
-8 -4 -4 -7 4 -17 2 -24 -3 -7 -6 -29 -23 -48 -39 -19 -16 -70 -55 -113 -88
-43 -32 -104 -78 -135 -102 -31 -23 -57 -47 -57 -52 0 -5 31 -36 69 -68 l69
-60 264 -2 264 -1 62 62 c35 34 86 73 117 88 l55 26 306 3 307 3 26 -31 c14
-18 27 -41 27 -53 1 -12 2 -29 3 -37 0 -8 -5 -21 -12 -29 -7 -7 -11 -20 -8
-28 3 -8 1 -11 -4 -8 -11 7 -43 -64 -36 -81 3 -7 0 -11 -7 -8 -14 5 -40 -54
-30 -69 3 -6 1 -7 -6 -3 -11 7 -33 -32 -24 -46 2 -5 -1 -8 -6 -8 -6 0 -11 -7
-11 -15 0 -8 -4 -15 -8 -15 -11 0 -32 -61 -25 -73 3 -6 1 -7 -5 -3 -8 4 -16
-4 -23 -21 -5 -15 -21 -50 -35 -76 -13 -26 -22 -52 -19 -58 4 -5 1 -8 -5 -7
-6 2 -19 -15 -28 -37 -8 -22 -18 -42 -22 -45 -13 -11 -30 -62 -24 -72 4 -7 2
-8 -4 -4 -13 8 -45 -61 -38 -80 3 -7 0 -11 -7 -8 -14 5 -40 -54 -30 -69 3 -6
1 -7 -5 -3 -13 8 -45 -61 -38 -80 3 -7 0 -11 -7 -8 -14 5 -40 -54 -30 -69 3
-6 2 -7 -4 -4 -13 8 -36 -41 -27 -55 4 -6 2 -8 -3 -5 -13 8 -56 -80 -47 -95 4
-7 3 -8 -4 -4 -14 8 -35 -30 -28 -50 3 -9 1 -12 -4 -9 -6 3 -10 -1 -10 -9 0
-9 -4 -16 -8 -16 -11 0 -32 -61 -25 -73 3 -6 2 -7 -4 -4 -13 8 -48 -67 -39
-82 4 -6 1 -9 -6 -6 -15 6 -41 -52 -31 -68 3 -6 1 -7 -5 -3 -14 8 -35 -30 -28
-50 3 -8 2 -13 -3 -10 -12 8 -53 -82 -45 -96 5 -7 2 -8 -5 -4 -11 7 -27 -22
-21 -40 1 -4 -2 -10 -7 -13 -18 -13 -54 -92 -47 -103 4 -7 3 -8 -4 -4 -15 9
-34 -28 -25 -51 3 -10 2 -15 -2 -11 -11 11 -38 -29 -29 -44 4 -7 3 -8 -4 -4
-7 4 -12 4 -11 -1 0 -4 31 -33 69 -63 84 -67 134 -109 214 -177 l61 -53 697
1395 c384 767 698 1397 698 1399 0 9 -73 25 -83 19 -6 -3 -7 -1 -3 5 5 8 0 12
-13 12 -11 0 -76 13 -143 30 -68 16 -134 31 -148 34 -14 3 -106 26 -204 51
-99 25 -186 43 -193 41 -8 -3 -12 -2 -9 2 6 10 -381 105 -395 97 -5 -4 -9 -2
-9 3 0 5 -20 13 -45 19 -45 10 -46 10 -108 -39z"/>
<path d="M10614 11013 c4 -10 4 -14 0 -10 -7 7 -144 -257 -144 -278 0 -7 -4
-15 -8 -17 -11 -4 -152 -287 -152 -304 0 -7 -4 -14 -8 -16 -15 -6 -982 -1950
-975 -1961 3 -5 1 -7 -4 -4 -11 7 -28 -22 -19 -30 2 -3 62 7 133 22 70 15 171
36 223 46 52 11 105 24 117 29 21 9 62 70 47 70 -4 0 0 8 8 18 24 27 57 102
52 117 -3 7 0 16 7 21 8 5 10 3 4 -7 -5 -8 -4 -11 1 -6 5 5 9 12 10 15 1 11
71 157 103 216 53 96 180 379 175 388 -4 6 -3 8 3 5 5 -4 16 6 23 21 7 15 19
39 27 55 8 15 11 32 7 39 -4 6 -3 8 3 5 13 -8 66 110 57 125 -5 7 -2 8 6 3 10
-6 12 -4 7 8 -3 9 -1 19 5 23 7 4 8 3 4 -4 -4 -7 -5 -12 -1 -12 11 0 46 93 41
107 -3 8 -2 11 4 8 10 -6 251 479 253 512 1 11 5 19 9 17 11 -7 30 36 23 54
-3 9 -3 13 1 9 10 -9 46 62 38 75 -5 7 -2 8 6 3 10 -6 12 -4 7 9 -4 9 -3 15 2
12 13 -8 110 210 104 233 -3 12 -9 18 -14 15 -5 -3 -6 3 -2 12 5 13 3 15 -7 9
-8 -5 -11 -4 -6 3 4 6 3 19 -3 29 -5 10 -24 52 -43 93 -78 172 -113 240 -121
240 -5 0 -6 -8 -3 -17z"/>
<path d="M9098 10561 c-46 -15 -84 -48 -122 -105 -19 -29 -43 -56 -52 -60 -8
-3 -174 -6 -368 -6 l-352 0 -65 56 -64 55 -6 -168 c-4 -92 -9 -375 -13 -628
l-7 -460 148 -122 c81 -66 203 -166 270 -222 l123 -101 440 880 440 880 -77 0
c-43 0 -121 2 -173 5 -52 3 -107 1 -122 -4z"/>
<path d="M10605 9727 c-175 -364 -374 -776 -442 -916 -111 -228 -130 -271
-120 -271 22 0 472 101 478 107 5 5 148 293 318 640 l310 632 -106 228 c-58
125 -108 231 -112 235 -3 4 -150 -291 -326 -655z"/>
</g>
</svg>
